<svg xmlns="http://www.w3.org/2000/svg" xmlns:xlink="http://www.w3.org/1999/xlink" width="375" height="812" viewBox="0 0 375 812">
  <defs>
    <clipPath id="clip-path">
      <rect width="239" height="114.809" fill="none"/>
    </clipPath>
    <clipPath id="clip-_6.0_02._Login_1">
      <rect width="375" height="812"/>
    </clipPath>
  </defs>
  <g id="_6.0_02._Login_1" data-name="6.0_02. Login – 1" clip-path="url(#clip-_6.0_02._Login_1)">
    <rect width="375" height="812" fill="#f0faf8"/>
    <g id="label" transform="translate(68 259)" clip-path="url(#clip-path)">
      <g id="label-2" data-name="label" transform="translate(-1000.92 -335)">
        <text id="Username" transform="translate(1007 350)" fill="#43425d" font-size="15" font-family="SegoeUI, Segoe UI"><tspan x="0" y="0">Username</tspan></text>
        <path id="Path_297" data-name="Path 297" d="M-835.08,2509.809h245.27" transform="translate(1836 -2144)" fill="none" stroke="#646d82" stroke-width="1"/>
      </g>
      <g id="label-3" data-name="label" transform="translate(-1000.92 -259)">
        <text id="Password" transform="translate(1007 350)" fill="#43425d" font-size="15" font-family="SegoeUI, Segoe UI"><tspan x="0" y="0">Password</tspan></text>
        <path id="Path_297-2" data-name="Path 297" d="M-835.08,2509.809h245.27" transform="translate(1836 -2144)" fill="none" stroke="#646d82" stroke-width="1"/>
      </g>
    </g>
    <text id="Term_of_use._Privacy_policy" data-name="Term of use. Privacy policy" transform="translate(188 744)" fill="#43425d" font-size="11" font-family="SegoeUI, Segoe UI" opacity="0.504"><tspan x="-63.637" y="0">Term of use. Privacy policy</tspan></text>
    <g id="btn_login" transform="translate(-906 -65)">
      <g id="Rectangle_166" data-name="Rectangle 166" transform="translate(1001 606)" fill="#2cd889" stroke="#2cd889" stroke-width="1">
        <rect width="185" height="50" rx="4" stroke="none"/>
        <rect x="0.5" y="0.5" width="184" height="49" rx="3.5" fill="none"/>
      </g>
      <text id="Login" transform="translate(1090 638)" fill="#fff" font-size="18" font-family="SegoeUI, Segoe UI"><tspan x="-22.083" y="0">Login</tspan></text>
    </g>
    <g id="btn_signup" transform="translate(-1121 -135)">
      <g id="Rectangle_167" data-name="Rectangle 167" transform="translate(1216 606)" fill="none" stroke="#2cd889" stroke-width="1">
        <rect width="185" height="50" rx="4" stroke="none"/>
        <rect x="0.5" y="0.5" width="184" height="49" rx="3.5" fill="none"/>
      </g>
      <text id="Sign_up" data-name="Sign up" transform="translate(1305 638)" fill="#4d4f5c" font-size="18" font-family="SegoeUI, Segoe UI"><tspan x="-30.204" y="0">Sign up</tspan></text>
    </g>
    <g id="RememberMe" transform="translate(-927 -138)">
      <g id="Rectangle_165" data-name="Rectangle 165" transform="translate(1001 525)" fill="#f0faf8" stroke="#808495" stroke-width="1">
        <rect width="18" height="18" rx="4" stroke="none"/>
        <rect x="0.5" y="0.5" width="17" height="17" rx="3.5" fill="none"/>
      </g>
      <text id="Remember_me" data-name="Remember me" transform="translate(1034 539)" fill="#43425d" font-size="14" font-family="SegoeUI, Segoe UI"><tspan x="0" y="0">Remember me</tspan></text>
    </g>
    <text id="Forgot_Password" data-name="Forgot Password" transform="translate(244 644)" fill="#43425d" font-size="15" font-family="SegoeUI, Segoe UI" text-decoration="underline"><tspan x="-110.068" y="0">Forgot Password</tspan></text>
    <text id="Welcome_back_Please_login_to_your_account." data-name="Welcome back! 
Please login to your account." transform="translate(188 174)" fill="#4d4f5c" font-size="15" font-family="SegoeUI, Segoe UI" opacity="0.5"><tspan x="-52.35" y="0">Welcome back! </tspan><tspan x="-95.372" y="18">Please login to your account.</tspan></text>
    <text id="_PATIENT" data-name="  PATIENT" transform="translate(79 136)" fill="#2cd889" font-size="40" font-family="SegoeUISymbol, Segoe UI Symbol"><tspan x="0" y="0" xml:space="preserve" fill="#2cd889">  </tspan><tspan y="0" fill="#000">P</tspan><tspan y="0" fill="#2cd889">ATIENT</tspan></text>
    <path id="Path_428" data-name="Path 428" d="M-5.325,24.886,5.99-6.4l-1.6-4.38L-5.325,15.813-15.04-10.781l-1.6,4.38Z" transform="translate(57.219 59.215) rotate(90)" fill="#333"/>
  </g>
</svg>
