<svg xmlns="http://www.w3.org/2000/svg" xmlns:xlink="http://www.w3.org/1999/xlink" width="375" height="812" viewBox="0 0 375 812">
  <defs>
    <clipPath id="clip-_6.0_01._Intro_2">
      <rect width="375" height="812"/>
    </clipPath>
  </defs>
  <g id="_6.0_01._Intro_2" data-name="6.0_01. Intro – 2" clip-path="url(#clip-_6.0_01._Intro_2)">
    <rect width="375" height="812" fill="#f0faf8"/>
    <g id="Group_1" data-name="Group 1" transform="translate(-65.406 -67.088)">
      <path id="Path_1" data-name="Path 1" d="M365.978,217.969a7.722,7.722,0,0,1,6.551,3.783l3.9-1.989a11.759,11.759,0,0,0-10.451-5.849c-7.682,0-13.648,5.459-13.648,13.453s5.966,13.453,13.648,13.453a11.807,11.807,0,0,0,10.451-5.849l-3.9-1.989a7.637,7.637,0,0,1-6.551,3.783c-5.147,0-8.969-3.939-8.969-9.4S360.831,217.969,365.978,217.969Z" transform="translate(-118.672)" fill="#4e4e4e"/>
      <path id="Path_2" data-name="Path 2" d="M429.381,220.577h7.877v21.993h4.562V220.577H449.7v-4.016H429.381Z" transform="translate(-169.635 -1.751)" fill="#4e4e4e"/>
      <path id="Path_3" data-name="Path 3" d="M507.752,213.913c-7.8,0-13.3,5.693-13.3,13.453s5.5,13.453,13.3,13.453,13.3-5.693,13.3-13.453S515.551,213.913,507.752,213.913Zm0,22.851c-5.264,0-8.618-4.055-8.618-9.4,0-5.381,3.354-9.4,8.618-9.4,5.225,0,8.618,4.016,8.618,9.4C516.37,232.708,512.978,236.764,507.752,236.764Z" transform="translate(-212.676)" fill="#4e4e4e"/>
      <path id="Path_4" data-name="Path 4" d="M217.124,213.913c-7.8,0-13.3,6.623-13.3,15.651,0,8.3,4.647,14.56,11.453,15.519-.658,8.291-6.667,14.805-13.962,14.805s-13.281-6.488-13.959-14.755c6.858-.765,11.562-6.929,11.562-15.751v-14.8H192.5a2.488,2.488,0,0,0-2.281,2.654h0a2.489,2.489,0,0,0,2.281,2.654H194.9v9.488c0,6.76-3.978,10.389-9.008,10.389-4.913,0-8.969-3.811-8.969-10.389v-9.488h2.747a2.489,2.489,0,0,0,2.281-2.654h0a2.489,2.489,0,0,0-2.281-2.654h-6.764v14.8c0,8.51,4.346,14.545,10.8,15.649.646,10.644,8.291,19.077,17.6,19.077,9.294,0,16.928-8.4,17.6-19.018,6.835-.935,11.5-7.208,11.5-15.526C230.421,220.536,224.923,213.913,217.124,213.913Zm0,26.585c-5.265,0-8.618-4.718-8.618-10.933,0-6.261,3.354-10.933,8.618-10.933,5.225,0,8.618,4.672,8.618,10.933C225.742,235.78,222.349,240.5,217.124,240.5Z" transform="translate(0 0)" fill="#2cd889"/>
      <circle id="Ellipse_1" data-name="Ellipse 1" cx="3.795" cy="3.795" r="3.795" transform="translate(213.33 225.487)" fill="#4e4e4e"/>
      <ellipse id="Ellipse_8" data-name="Ellipse 8" cx="3.795" cy="1.953" rx="3.795" ry="1.953" transform="translate(182.087 226.842)" fill="#4e4e4e"/>
      <path id="Path_5" data-name="Path 5" d="M599.784,232.354a7.294,7.294,0,0,0,6.161-7.643c0-4.8-3.354-8.15-8.5-8.15H586.019v26.01h4.562V220.578h6.239c2.574,0,4.445,1.638,4.445,4.133s-1.872,4.134-4.445,4.134h-.806a.909.909,0,0,0-.909.909v2.657a1.638,1.638,0,0,0,.23.837l5.541,9.323h5.265Z" transform="translate(-273.239 -1.751)" fill="#4e4e4e"/>
    </g>
    <text id="_PATIENT" data-name="  PATIENT" transform="translate(101 449)" fill="#2cd889" font-size="40" font-family="SegoeUISymbol, Segoe UI Symbol"><tspan x="0" y="0" xml:space="preserve" fill="#2cd889">  </tspan><tspan y="0" fill="#000">P</tspan><tspan y="0" fill="#2cd889">ATIENT</tspan></text>
    <g id="button_normal" transform="translate(117.368 243.449)">
      <rect id="Rectangle_166" data-name="Rectangle 166" width="142" height="37" rx="4" transform="translate(-0.368 -0.449)" fill="#2cd889"/>
      <text id="CLICK_HERE" data-name="CLICK HERE" transform="translate(68.632 21.551)" fill="#fff" font-size="8" font-family="SegoeUI, Segoe UI"><tspan x="-20.596" y="0">CLICK HERE</tspan></text>
    </g>
    <g id="button_normal-2" data-name="button_normal" transform="translate(117.368 243.449)">
      <rect id="Rectangle_166-2" data-name="Rectangle 166" width="142" height="37" rx="4" transform="translate(-0.368 -0.449)" fill="#2cd889"/>
      <text id="CLICK_HERE-2" data-name="CLICK HERE" transform="translate(70.632 21.551)" fill="#fff" font-size="8" font-family="SegoeUI, Segoe UI"><tspan x="-20.596" y="0">CLICK HERE</tspan></text>
    </g>
    <rect id="Rectangle_1475" data-name="Rectangle 1475" width="142" height="37" rx="4" transform="translate(123 550)" fill="#2cd889"/>
    <text id="CLICK_HERE-3" data-name="CLICK HERE" transform="translate(194 572)" fill="#fff" font-size="8" font-family="SegoeUI, Segoe UI"><tspan x="-20.596" y="0">CLICK HERE</tspan></text>
  </g>
</svg>
